<svg xmlns="http://www.w3.org/2000/svg" viewBox="0 0 1610 1655" preserveAspectRatio="xMidYMid" width="1610" height="1655" xmlns:xlink="http://www.w3.org/1999/xlink" style="shape-rendering:auto;display:block;background-position-x:0%;background-position-y:0%;background-size:auto;background-origin:padding-box;background-clip:border-box;background:scroll rgba(0, 0, 0, 0) none  repeat;width:1610px;height:1655px;;animation:none"><g><g transform="matrix(-0.848048096156426,0.529919264233205,-0.529919264233205,-0.848048096156426,1926.1869085589,1102.6747918617125)" style="transform:matrix(-0.848048, 0.529919, -0.529919, -0.848048, 1926.19, 1102.67);;animation:none"><path d="M -1610 498.435 S -1245 470.435 -1006 470.435 S -637 557.435 -402 557.435 S -8 462.435 202 462.435 S 646 551.435 806 551.435 S 1318 486.435 1410 486.435 S 1901 544.435 2014 544.435 S 2382 517.435 2618 517.435 S 3098 584.435 3222 584.435" fill="none" stroke="rgb(70, 88, 172)" stroke-opacity="0" stroke-width="18.25657894736842" transform="matrix(1,0,0,1,805,0)" style="fill:none;stroke:rgb(70, 88, 172);transform:matrix(1, 0, 0, 1, 805, 0);;animation:none"></path></g>
<g transform="matrix(-0.8482054142966083,0.5296674193849561,-0.5296674193849561,-0.8482054142966083,1926.1051480498209,1103.0077077255537)" style="transform:matrix(-0.848205, 0.529667, -0.529667, -0.848205, 1926.11, 1103.01);;animation:none"><path d="M -1610 606.649 S -1162 569.618 -1006 569.618 S -579.9 628.634 -402 628.634 S 131.909 607.574 202 607.574 S 718.993 701.57 806 701.57 S 1242.97 657.57 1410 657.57 S 1916.93 747.502 2014 747.502 S 2526.95 685.5 2618 685.5 S 3048.03 736.509 3222 736.509" fill="none" stroke="rgb(71, 87, 172)" stroke-opacity="0" stroke-width="18.013157894736842" transform="matrix(1,0,0,1,804.6239624023438,0)" style="fill:none;stroke:rgb(71, 87, 172);transform:matrix(1, 0, 0, 1, 804.624, 0);;animation:none"></path></g>
<g transform="matrix(-0.8486924139002198,0.528886742685254,-0.528886742685254,-0.8486924139002198,1925.8511727617247,1104.0391446408025)" style="transform:matrix(-0.848692, 0.528887, -0.528887, -0.848692, 1925.85, 1104.04);;animation:none"><path d="M -1610 471.386 S -1222.5 451.115 -1006 451.115 S -525.263 507.038 -402 507.038 S 80.124 486.022 202 486.022 S 569.616 506.239 806 506.239 S 1223.8 446.107 1410 446.107 S 1942.34 494.111 2014 494.111 S 2478.89 434.127 2618 434.127 S 3121.06 505.053 3222 505.053" fill="none" stroke="rgb(74, 86, 171)" stroke-opacity="0" stroke-width="17.769736842105264" transform="matrix(1,0,0,1,803.4778442382812,0)" style="fill:none;stroke:rgb(74, 86, 171);transform:matrix(1, 0, 0, 1, 803.478, 0);;animation:none"></path></g>
<g transform="matrix(-0.8495319407233421,0.5275371851261595,-0.5275371851261595,-0.8495319407233421,1925.4102329741875,1105.8202469220073)" style="transform:matrix(-0.849532, 0.527537, -0.527537, -0.849532, 1925.41, 1105.82);;animation:none"><path d="M -1610 572.505 S -1109.06 485.594 -1006 485.594 S -466.5 564.666 -402 564.666 S 108.071 546.951 202 546.951 S 714.893 608.781 806 608.781 S 1239.65 522.933 1410 522.933 S 1874.92 608.915 2014 608.915 S 2443.55 555.656 2618 555.656 S 3058.44 629.594 3222 629.594" fill="none" stroke="rgb(80, 82, 170)" stroke-opacity="0" stroke-width="17.526315789473685" transform="matrix(1,0,0,1,801.5338134765625,0)" style="fill:none;stroke:rgb(80, 82, 170);transform:matrix(1, 0, 0, 1, 801.534, 0);;animation:none"></path></g>
<g transform="matrix(-0.8507477376973294,0.5255742448055042,-0.5255742448055042,-0.8507477376973294,1924.764616422905,1108.4064858761092)" style="transform:matrix(-0.850748, 0.525574, -0.525574, -0.850748, 1924.76, 1108.41);;animation:none"><path d="M -1610 499.141 S -1243.89 470.181 -1006 470.181 S -634.606 557.001 -402 557.001 S -6.77875 463.141 202 463.141 S 645.43 551.62 806 551.62 S 1316 487.32 1410 487.32 S 1900.82 545.662 2014 545.662 S 2383.76 517.783 2618 517.783 S 3096.14 585.158 3222 585.158" fill="none" stroke="rgb(89, 78, 168)" stroke-opacity="0" stroke-width="17.282894736842106" transform="matrix(1,0,0,1,798.7628173828125,0)" style="fill:none;stroke:rgb(89, 78, 168);transform:matrix(1, 0, 0, 1, 798.763, 0);;animation:none"></path></g>
<g transform="matrix(-0.8523641114454037,0.5229487752350964,-0.5229487752350964,-0.8523641114454037,1923.8932212205923,1111.857538156819)" style="transform:matrix(-0.852364, 0.522949, -0.522949, -0.852364, 1923.89, 1111.86);;animation:none"><path d="M -1610 606.847 S -1162.13 568.986 -1006 568.986 S -577.234 628.43 -402 628.43 S 129.495 605.786 202 605.786 S 718.817 699.655 806 699.655 S 1242.24 655.655 1410 655.655 S 1915.09 743.802 2014 743.802 S 2525.64 681.724 2618 681.724 S 3048.94 732.985 3222 732.985" fill="none" stroke="rgb(102, 71, 165)" stroke-opacity="0" stroke-width="17.039473684210527" transform="matrix(1,0,0,1,795.1345825195312,0)" style="fill:none;stroke:rgb(102, 71, 165);transform:matrix(1, 0, 0, 1, 795.135, 0);;animation:none"></path></g>
<g transform="matrix(-0.8544048388878545,0.5196079014843975,-0.5196079014843975,-0.8544048388878545,1922.7714337830619,1116.2356434847595)" style="transform:matrix(-0.854405, 0.519608, -0.519608, -0.854405, 1922.77, 1116.24);;animation:none"><path d="M -1610 471.282 S -1217.99 448.583 -1006 448.583 S -527.622 503.812 -402 503.812 S 81.2339 482.658 202 482.658 S 575.131 504.817 806 504.817 S 1221.99 443.506 1410 443.506 S 1936.45 491.545 2014 491.545 S 2477.88 431.699 2618 431.699 S 3121.58 501.966 3222 501.966" fill="none" stroke="rgb(118, 62, 162)" stroke-opacity="0" stroke-width="16.79605263157895" transform="matrix(1,0,0,1,790.617431640625,0)" style="fill:none;stroke:rgb(118, 62, 162);transform:matrix(1, 0, 0, 1, 790.617, 0);;animation:none"></path></g>
<g transform="matrix(-0.8568934023924861,0.515493643933879,-0.515493643933879,-0.8568934023924861,1921.3701792812362,1121.6069071130096)" style="transform:matrix(-0.856893, 0.515494, -0.515494, -0.856893, 1921.37, 1121.61);;animation:none"><path d="M -1610 574.136 S -1114.41 487.675 -1006 487.675 S -469.016 567.106 -402 567.106 S 108.431 545.797 202 545.797 S 714.354 606.773 806 606.773 S 1237.9 521.689 1410 521.689 S 1874.52 607.581 2014 607.581 S 2446.34 553.019 2618 553.019 S 3055.61 626.642 3222 626.642" fill="none" stroke="rgb(138, 51, 158)" stroke-opacity="0" stroke-width="16.55263157894737" transform="matrix(1,0,0,1,785.1786499023438,0)" style="fill:none;stroke:rgb(138, 51, 158);transform:matrix(1, 0, 0, 1, 785.179, 0);;animation:none"></path></g>
<g transform="matrix(-0.8598509391290718,0.5105451620364775,-0.5105451620364775,-0.8598509391290718,1919.656127584088,1128.0377966899425)" style="transform:matrix(-0.859851, 0.510545, -0.510545, -0.859851, 1919.66, 1128.04);;animation:none"><path d="M -1610 501.569 S -1240.09 469.308 -1006 469.308 S -626.385 555.514 -402 555.514 S -2.58398 465.569 202 465.569 S 643.473 552.258 806 552.258 S 1309.12 490.363 1410 490.363 S 1900.21 549.88 2014 549.88 S 2389.8 518.98 2618 518.98 S 3089.77 587.641 3222 587.641" fill="none" stroke="rgb(159, 39, 153)" stroke-opacity="0" stroke-width="16.30921052631579" transform="matrix(1,0,0,1,778.7839965820312,0)" style="fill:none;stroke:rgb(159, 39, 153);transform:matrix(1, 0, 0, 1, 778.784, 0);;animation:none"></path></g>
<g transform="matrix(-0.8632954056757871,0.5046989622924523,-0.5046989622924523,-0.8632954056757871,1917.591192866013,1135.5942835512897)" style="transform:matrix(-0.863295, 0.504699, -0.504699, -0.863295, 1917.59, 1135.59);;animation:none"><path d="M -1610 607.382 S -1162.47 567.286 -1006 567.286 S -570.056 627.881 -402 627.881 S 122.994 600.97 202 600.97 S 718.343 694.501 806 694.501 S 1240.28 650.501 1410 650.501 S 1910.15 733.841 2014 733.841 S 2522.12 671.559 2618 671.559 S 3051.38 723.497 3222 723.497" fill="none" stroke="rgb(179, 28, 149)" stroke-opacity="0" stroke-width="16.06578947368421" transform="matrix(1,0,0,1,771.3980712890625,0)" style="fill:none;stroke:rgb(179, 28, 149);transform:matrix(1, 0, 0, 1, 771.398, 0);;animation:none"></path></g>
<g transform="matrix(-0.8672395038191386,0.49789119596105963,-0.49789119596105963,-0.8672395038191386,1915.1327652321834,1144.3382766616842)" style="transform:matrix(-0.86724, 0.497891, -0.497891, -0.86724, 1915.13, 1144.34);;animation:none"><path d="M -1610 471.042 S -1207.55 442.722 -1006 442.722 S -533.082 496.345 -402 496.345 S 83.8034 474.869 202 474.869 S 587.898 501.525 806 501.525 S 1217.82 437.484 1410 437.484 S 1922.79 485.603 2014 485.603 S 2475.55 426.078 2618 426.078 S 3122.78 494.82 3222 494.82" fill="none" stroke="rgb(196, 19, 145)" stroke-opacity="0" stroke-width="15.822368421052632" transform="matrix(1,0,0,1,762.9843139648438,0)" style="fill:none;stroke:rgb(196, 19, 145);transform:matrix(1, 0, 0, 1, 762.984, 0);;animation:none"></path></g>
<g transform="matrix(-0.8716873737389219,0.4900623658924862,-0.4900623658924862,-0.8716873737389219,1912.2349436358645,1154.3210972255065)" style="transform:matrix(-0.871687, 0.490062, -0.490062, -0.871687, 1912.23, 1154.32);;animation:none"><path d="M -1610 577.537 S -1125.55 492.012 -1006 492.012 S -474.261 572.192 -402 572.192 S 109.18 543.391 202 543.391 S 713.23 602.588 806 602.588 S 1234.25 519.096 1410 519.096 S 1873.67 604.801 2014 604.801 S 2452.15 547.523 2618 547.523 S 3049.71 620.49 3222 620.49" fill="none" stroke="rgb(210, 12, 143)" stroke-opacity="0" stroke-width="15.578947368421053" transform="matrix(1,0,0,1,753.5048828125,0)" style="fill:none;stroke:rgb(210, 12, 143);transform:matrix(1, 0, 0, 1, 753.505, 0);;animation:none"></path></g>
<g transform="matrix(-0.8766319483404201,0.4811615395570171,-0.4811615395570171,-0.8766319483404201,1908.8498923974698,1165.5778979082988)" style="transform:matrix(-0.876632, 0.481162, -0.481162, -0.876632, 1908.85, 1165.58);;animation:none"><path d="M -1610 506.244 S -1232.76 467.628 -1006 467.628 S -610.551 552.649 -402 552.649 S 5.49463 470.244 202 470.244 S 639.703 553.486 806 553.486 S 1295.87 496.223 1410 496.223 S 1899.02 558.002 2014 558.002 S 2401.43 521.286 2618 521.286 S 3077.49 592.424 3222 592.424" fill="none" stroke="rgb(219, 6, 140)" stroke-opacity="0" stroke-width="15.335526315789474" transform="matrix(1,0,0,1,742.9210205078125,0)" style="fill:none;stroke:rgb(219, 6, 140);transform:matrix(1, 0, 0, 1, 742.921, 0);;animation:none"></path></g>
<g transform="matrix(-0.8820507888804824,0.47115433335088686,-0.47115433335088686,-0.8820507888804824,1904.931095896647,1178.1177894511352)" style="transform:matrix(-0.882051, 0.471154, -0.471154, -0.882051, 1904.93, 1178.12);;animation:none"><path d="M -1610 608.347 S -1163.08 564.214 -1006 564.214 S -557.088 626.888 -402 626.888 S 111.249 592.271 202 592.271 S 717.487 685.19 806 685.19 S 1236.73 641.19 1410 641.19 S 1901.22 715.843 2014 715.843 S 2515.76 653.195 2618 653.195 S 3055.78 706.356 3222 706.356" fill="none" stroke="rgb(226, 3, 139)" stroke-opacity="0" stroke-width="15.092105263157896" transform="matrix(1,0,0,1,731.1929321289062,0)" style="fill:none;stroke:rgb(226, 3, 139);transform:matrix(1, 0, 0, 1, 731.193, 0);;animation:none"></path></g>
<g transform="matrix(-0.8879013322603525,0.4600339380635857,-0.4600339380635857,-0.8879013322603525,1900.4386562172008,1191.911032304255)" style="transform:matrix(-0.887901, 0.460034, -0.460034, -0.887901, 1900.44, 1191.91);;animation:none"><path d="M -1610 470.63 S -1189.7 432.7 -1006 432.7 S -542.418 483.577 -402 483.577 S 88.1968 461.552 202 461.552 S 609.728 495.897 806 495.897 S 1210.68 427.188 1410 427.188 S 1899.45 475.444 2014 475.444 S 2471.57 416.468 2618 416.468 S 3124.84 482.601 3222 482.601" fill="none" stroke="rgb(230, 1, 138)" stroke-opacity="0" stroke-width="14.848684210526315" transform="matrix(1,0,0,1,718.280029296875,0)" style="fill:none;stroke:rgb(230, 1, 138);transform:matrix(1, 0, 0, 1, 718.28, 0);;animation:none"></path></g>
<g transform="matrix(-0.8941180548486086,0.4478313343143159,-0.4478313343143159,-0.8941180548486086,1895.3454632982264,1206.8784662641992)" style="transform:matrix(-0.894118, 0.447831, -0.447831, -0.894118, 1895.35, 1206.88);;animation:none"><path d="M -1610 583.064 S -1143.67 499.062 -1006 499.062 S -482.786 580.46 -402 580.46 S 110.398 539.48 202 539.48 S 711.403 595.785 806 595.785 S 1228.31 514.881 1410 514.881 S 1872.3 600.281 2014 600.281 S 2461.58 538.589 2618 538.589 S 3040.12 610.49 3222 610.49" fill="none" stroke="rgb(231, 0, 138)" stroke-opacity="0" stroke-width="14.605263157894736" transform="matrix(1,0,0,1,704.1414794921875,0)" style="fill:none;stroke:rgb(231, 0, 138);transform:matrix(1, 0, 0, 1, 704.141, 0);;animation:none"></path></g>
<g transform="matrix(-0.9006099418034067,0.43462826958777584,-0.43462826958777584,-0.9006099418034067,1889.6458962356269,1222.8789698241594)" style="transform:matrix(-0.90061, 0.434628, -0.434628, -0.90061, 1889.65, 1222.88);;animation:none"><path d="M -1610 513.477 S -1221.43 465.029 -1006 465.029 S -586.053 548.217 -402 548.217 S 17.9931 477.477 202 477.477 S 633.87 555.387 806 555.387 S 1275.37 505.29 1410 505.29 S 1897.19 570.568 2014 570.568 S 2419.43 524.853 2618 524.853 S 3058.49 599.824 3222 599.824" fill="none" stroke="rgb(231, 0, 138)" stroke-opacity="0" stroke-width="14.361842105263158" transform="matrix(1,0,0,1,688.7359619140625,0)" style="fill:none;stroke:rgb(231, 0, 138);transform:matrix(1, 0, 0, 1, 688.736, 0);;animation:none"></path></g>
<g transform="matrix(-0.9072619155609648,0.42056606683450903,-0.42056606683450903,-0.9072619155609648,1883.364262332133,1239.7035513249186)" style="transform:matrix(-0.907262, 0.420566, -0.420566, -0.907262, 1883.36, 1239.7);;animation:none"><path d="M -1610 609.767 S -1163.98 559.695 -1006 559.695 S -538.014 625.429 -402 625.429 S 93.9751 579.475 202 579.475 S 716.227 671.495 806 671.495 S 1231.51 627.495 1410 627.495 S 1888.09 689.372 2014 689.372 S 2506.4 626.184 2618 626.184 S 3062.26 681.145 3222 681.145" fill="none" stroke="rgb(232, 0, 136)" stroke-opacity="0" stroke-width="14.118421052631579" transform="matrix(1,0,0,1,672.0225830078125,0)" style="fill:none;stroke:rgb(232, 0, 136);transform:matrix(1, 0, 0, 1, 672.023, 0);;animation:none"></path></g>
<g transform="matrix(-0.9139406120474949,0.4058479489294611,-0.4058479489294611,-0.9139406120474949,1876.5613704373623,1257.0782575810858)" style="transform:matrix(-0.913941, 0.405848, -0.405848, -0.913941, 1876.56, 1257.08);;animation:none"><path d="M -1610 470.057 S -1164.82 418.729 -1006 418.729 S -555.433 465.778 -402 465.778 S 94.3213 442.988 202 442.988 S 640.159 488.05 806 488.05 S 1200.73 412.834 1410 412.834 S 1866.92 461.282 2014 461.282 S 2466.02 403.072 2618 403.072 S 3127.71 465.568 3222 465.568" fill="none" stroke="rgb(232, 0, 134)" stroke-opacity="0" stroke-width="13.875" transform="matrix(1,0,0,1,653.9612426757812,0)" style="fill:none;stroke:rgb(232, 0, 134);transform:matrix(1, 0, 0, 1, 653.961, 0);;animation:none"></path></g>
<g transform="matrix(-0.9205048534524404,0.39073112848927377,-0.39073112848927377,-0.9205048534524404,1869.3364158540885,1274.679207798029)" style="transform:matrix(-0.920505, 0.390731, -0.390731, -0.920505, 1869.34, 1274.68);;animation:none"><path d="M -1610 590.336 S -1167.5 508.336 -1006 508.336 S -494 591.336 -402 591.336 S 112 534.336 202 534.336 S 709 586.836 806 586.836 S 1220.5 509.336 1410 509.336 S 1870.5 594.336 2014 594.336 S 2474 526.836 2618 526.836 S 3027.5 597.336 3222 597.336" fill="none" stroke="rgb(234, 0, 130)" stroke-opacity="0" stroke-width="13.631578947368421" transform="matrix(1,0,0,1,634.5130615234375,0)" style="fill:none;stroke:rgb(234, 0, 130);transform:matrix(1, 0, 0, 1, 634.513, 0);;animation:none"></path></g>
<g transform="matrix(-0.926819078811981,0.37550818253416385,-0.37550818253416385,-0.926819078811981,1861.8223794906653,1292.1587007769124)" style="transform:matrix(-0.926819, 0.375508, -0.375508, -0.926819, 1861.82, 1292.16);;animation:none"><path d="M -1610 522.414 S -1207.43 461.819 -1006 461.819 S -555.788 542.741 -402 542.741 S 33.4345 486.414 202 486.414 S 626.664 557.735 806 557.735 S 1250.05 516.491 1410 516.491 S 1894.92 586.092 2014 586.092 S 2441.67 529.259 2618 529.259 S 3035.02 608.966 3222 608.966" fill="none" stroke="rgb(235, 0, 124)" stroke-opacity="0" stroke-width="13.388157894736842" transform="matrix(1,0,0,1,613.6412963867188,0)" style="fill:none;stroke:rgb(235, 0, 124);transform:matrix(1, 0, 0, 1, 613.641, 0);;animation:none"></path></g>
<g transform="matrix(-0.9327669943890358,0.36047986653687686,-0.36047986653687686,-0.9327669943890358,1854.1745200424393,1309.1783952947412)" style="transform:matrix(-0.932767, 0.36048, -0.36048, -0.932767, 1854.17, 1309.18);;animation:none"><path d="M -1610 611.406 S -1165.02 554.477 -1006 554.477 S -515.986 623.744 -402 623.744 S 74.0249 564.697 202 564.697 S 714.773 655.678 806 655.678 S 1225.49 611.678 1410 611.678 S 1872.91 658.8 2014 658.8 S 2495.6 594.989 2618 594.989 S 3069.74 652.028 3222 652.028" fill="none" stroke="rgb(238, 0, 116)" stroke-opacity="0" stroke-width="13.144736842105264" transform="matrix(1,0,0,1,591.3123779296875,0)" style="fill:none;stroke:rgb(238, 0, 116);transform:matrix(1, 0, 0, 1, 591.312, 0);;animation:none"></path></g>
<g transform="matrix(-0.938261647259131,0.3459264102126087,-0.3459264102126087,-0.938261647259131,1846.5547304945342,1325.440752885781)" style="transform:matrix(-0.938262, 0.345926, -0.345926, -0.938262, 1846.55, 1325.44);;animation:none"><path d="M -1610 469.44 S -1138.05 403.7 -1006 403.7 S -569.433 446.632 -402 446.632 S 100.91 423.018 202 423.018 S 672.895 479.61 806 479.61 S 1190.02 397.393 1410 397.393 S 1831.92 446.047 2014 446.047 S 2460.05 388.661 2618 388.661 S 3130.8 447.246 3222 447.246" fill="none" stroke="rgb(241, 0, 106)" stroke-opacity="0" stroke-width="12.901315789473685" transform="matrix(1,0,0,1,567.49658203125,0)" style="fill:none;stroke:rgb(241, 0, 106);transform:matrix(1, 0, 0, 1, 567.497, 0);;animation:none"></path></g>
<g transform="matrix(-0.9432494935901545,0.3320849181187202,-0.3320849181187202,-0.9432494935901545,1839.1161120833153,1340.7105968602832)" style="transform:matrix(-0.943249, 0.332085, -0.332085, -0.943249, 1839.12, 1340.71);;animation:none"><path d="M -1610 597.607 S -1191.33 517.61 -1006 517.61 S -505.214 602.212 -402 602.212 S 113.602 529.191 202 529.191 S 706.597 577.886 806 577.886 S 1212.69 503.791 1410 503.791 S 1868.7 588.39 2014 588.39 S 2486.42 515.083 2618 515.083 S 3014.88 584.181 3222 584.181" fill="none" stroke="rgb(244, 0, 96)" stroke-opacity="0" stroke-width="12.657894736842104" transform="matrix(1,0,0,1,542.169921875,0)" style="fill:none;stroke:rgb(244, 0, 96);transform:matrix(1, 0, 0, 1, 542.17, 0);;animation:none"></path></g>
<g transform="matrix(-0.9477088137520122,0.319136341297499,-0.319136341297499,-0.9477088137520122,1831.9909174940503,1354.8242886353034)" style="transform:matrix(-0.947709, 0.319136, -0.319136, -0.947709, 1831.99, 1354.82);;animation:none"><path d="M -1610 530.721 S -1194.42 458.834 -1006 458.834 S -527.654 537.651 -402 537.651 S 47.7887 494.721 202 494.721 S 619.965 559.917 806 559.917 S 1226.51 526.903 1410 526.903 S 1892.82 600.524 2014 600.524 S 2462.34 533.356 2618 533.356 S 3013.2 617.464 3222 617.464" fill="none" stroke="rgb(247, 0, 86)" stroke-opacity="0" stroke-width="12.414473684210526" transform="matrix(1,0,0,1,515.31494140625,0)" style="fill:none;stroke:rgb(247, 0, 86);transform:matrix(1, 0, 0, 1, 515.315, 0);;animation:none"></path></g>
<g transform="matrix(-0.9516440277471061,0.3072029369216141,-0.3072029369216141,-0.9516440277471061,1825.283872639056,1367.687068738831)" style="transform:matrix(-0.951644, 0.307203, -0.307203, -0.951644, 1825.28, 1367.69);;animation:none"><path d="M -1610 612.826 S -1165.92 549.959 -1006 549.959 S -496.912 622.284 -402 622.284 S 56.7506 551.902 202 551.902 S 713.513 641.983 806 641.983 S 1220.27 597.983 1410 597.983 S 1859.78 632.329 2014 632.329 S 2486.24 567.978 2618 567.978 S 3076.22 626.816 3222 626.816" fill="none" stroke="rgb(249, 0, 77)" stroke-opacity="0" stroke-width="12.171052631578947" transform="matrix(1,0,0,1,486.92266845703125,0)" style="fill:none;stroke:rgb(249, 0, 77);transform:matrix(1, 0, 0, 1, 486.923, 0);;animation:none"></path></g>
<g transform="matrix(-0.9550782875983272,0.2963536140462047,-0.2963536140462047,-0.9550782875983272,1819.0706371398878,1379.262623680421)" style="transform:matrix(-0.955078, 0.296354, -0.296354, -0.955078, 1819.07, 1379.26);;animation:none"><path d="M -1610 468.941 S -1116.39 391.536 -1006 391.536 S -580.765 431.134 -402 431.134 S 106.242 406.854 202 406.854 S 699.391 472.778 806 472.778 S 1181.36 384.896 1410 384.896 S 1803.59 433.716 2014 433.716 S 2455.22 376.996 2618 376.996 S 3133.3 432.415 3222 432.415" fill="none" stroke="rgb(251, 0, 70)" stroke-opacity="0" stroke-width="11.927631578947368" transform="matrix(1,0,0,1,456.99456787109375,0)" style="fill:none;stroke:rgb(251, 0, 70);transform:matrix(1, 0, 0, 1, 456.995, 0);;animation:none"></path></g>
<g transform="matrix(-0.9580462950257504,0.28661349686892396,-0.28661349686892396,-0.9580462950257504,1813.3999361547637,1389.5594441543249)" style="transform:matrix(-0.958046, 0.286613, -0.286613, -0.958046, 1813.4, 1389.56);;animation:none"><path d="M -1610 603.135 S -1209.45 524.659 -1006 524.659 S -513.739 610.479 -402 610.479 S 114.82 525.281 202 525.281 S 704.77 571.083 806 571.083 S 1206.75 499.576 1410 499.576 S 1867.33 583.871 2014 583.871 S 2495.85 506.149 2618 506.149 S 3005.29 574.181 3222 574.181" fill="none" stroke="rgb(253, 0, 65)" stroke-opacity="0" stroke-width="11.68421052631579" transform="matrix(1,0,0,1,425.5439147949219,0)" style="fill:none;stroke:rgb(253, 0, 65);transform:matrix(1, 0, 0, 1, 425.544, 0);;animation:none"></path></g>
<g transform="matrix(-0.960588134013673,0.2779756046708591,-0.2779756046708591,-0.960588134013673,1808.2982607461427,1398.616319136273)" style="transform:matrix(-0.960588, 0.277976, -0.277976, -0.960588, 1808.3, 1398.62);;animation:none"><path d="M -1610 536.68 S -1185.08 456.692 -1006 456.692 S -507.472 534 -402 534 S 58.0858 500.68 202 500.68 S 615.16 561.483 806 561.483 S 1209.62 534.372 1410 534.372 S 1891.31 610.877 2014 610.877 S 2477.16 536.295 2618 536.295 S 2997.55 623.561 3222 623.561" fill="none" stroke="rgb(254, 0, 61)" stroke-opacity="0" stroke-width="11.44078947368421" transform="matrix(1,0,0,1,392.59814453125,0)" style="fill:none;stroke:rgb(254, 0, 61);transform:matrix(1, 0, 0, 1, 392.598, 0);;animation:none"></path></g>
<g transform="matrix(-0.9627454304980583,0.27040938603367376,-0.27040938603367376,-0.9627454304980583,1803.773838493802,1406.4922879800358)" style="transform:matrix(-0.962745, 0.270409, -0.270409, -0.962745, 1803.77, 1406.49);;animation:none"><path d="M -1610 613.791 S -1166.53 546.887 -1006 546.887 S -483.944 621.292 -402 621.292 S 45.006 543.202 202 543.202 S 712.657 632.671 806 632.671 S 1216.72 588.671 1410 588.671 S 1850.85 614.332 2014 614.332 S 2479.88 549.613 2618 549.613 S 3080.62 609.675 3222 609.675" fill="none" stroke="rgb(255, 0, 59)" stroke-opacity="0" stroke-width="11.197368421052632" transform="matrix(1,0,0,1,358.2011413574219,0)" style="fill:none;stroke:rgb(255, 0, 59);transform:matrix(1, 0, 0, 1, 358.201, 0);;animation:none"></path></g>
<g transform="matrix(-0.9645581071362236,0.2638705325681241,-0.2638705325681241,-0.9645581071362236,1799.8221419447827,1413.256054937885)" style="transform:matrix(-0.964558, 0.263871, -0.263871, -0.964558, 1799.82, 1413.26);;animation:none"><path d="M -1610 468.618 S -1102.39 383.673 -1006 383.673 S -588.089 421.117 -402 421.117 S 109.689 396.406 202 396.406 S 716.518 468.362 806 468.362 S 1175.76 376.817 1410 376.817 S 1785.28 425.745 2014 425.745 S 2452.09 369.456 2618 369.456 S 3134.92 422.828 3222 422.828" fill="none" stroke="rgb(255, 0, 58)" stroke-opacity="0" stroke-width="10.953947368421053" transform="matrix(1,0,0,1,322.4140625,0)" style="fill:none;stroke:rgb(255, 0, 58);transform:matrix(1, 0, 0, 1, 322.414, 0);;animation:none"></path></g>
<g transform="matrix(-0.9660632694662705,0.25830555431143953,-0.25830555431143953,-0.9660632694662705,1796.428778113064,1418.98138426263)" style="transform:matrix(-0.966063, 0.258306, -0.258306, -0.966063, 1796.43, 1418.98);;animation:none"><path d="M -1610 606.535 S -1220.59 528.997 -1006 528.997 S -518.984 615.566 -402 615.566 S 115.569 522.875 202 522.875 S 703.646 566.898 806 566.898 S 1203.1 496.982 1410 496.982 S 1866.48 581.09 2014 581.09 S 2501.66 500.652 2618 500.652 S 2999.39 568.029 3222 568.029" fill="none" stroke="rgb(255, 0, 58)" stroke-opacity="0" stroke-width="10.710526315789474" transform="matrix(1,0,0,1,285.31787109375,0)" style="fill:none;stroke:rgb(255, 0, 58);transform:matrix(1, 0, 0, 1, 285.318, 0);;animation:none"></path></g>
<g transform="matrix(-0.9672941172022912,0.2536574280911959,-0.2536574280911959,-0.9672941172022912,1793.573286093309,1423.7416523714833)" style="transform:matrix(-0.967294, 0.253657, -0.253657, -0.967294, 1793.57, 1423.74);;animation:none"><path d="M -1610 540.165 S -1179.62 455.44 -1006 455.44 S -495.668 531.864 -402 531.864 S 64.1081 504.165 202 504.165 S 612.35 562.399 806 562.399 S 1199.74 538.741 1410 538.741 S 1890.42 616.931 2014 616.931 S 2485.84 538.013 2618 538.013 S 2988.4 627.127 3222 627.127" fill="none" stroke="rgb(255, 2, 57)" stroke-opacity="0" stroke-width="10.467105263157896" transform="matrix(1,0,0,1,247.01385498046875,0)" style="fill:none;stroke:rgb(255, 2, 57);transform:matrix(1, 0, 0, 1, 247.014, 0);;animation:none"></path></g>
<g transform="matrix(-0.9682797322593517,0.24986868570462806,-0.24986868570462806,-0.9682797322593517,1791.2315218893577,1427.6071864523879)" style="transform:matrix(-0.96828, 0.249869, -0.249869, -0.96828, 1791.23, 1427.61);;animation:none"><path d="M -1610 614.325 S -1166.87 545.186 -1006 545.186 S -476.766 620.743 -402 620.743 S 38.5053 538.387 202 538.387 S 712.183 627.517 806 627.517 S 1214.76 583.517 1410 583.517 S 1845.91 604.37 2014 604.37 S 2476.36 539.448 2618 539.448 S 3083.06 600.188 3222 600.188" fill="none" stroke="rgb(255, 5, 55)" stroke-opacity="0" stroke-width="10.223684210526315" transform="matrix(1,0,0,1,207.62396240234375,0)" style="fill:none;stroke:rgb(255, 5, 55);transform:matrix(1, 0, 0, 1, 207.624, 0);;animation:none"></path></g>
<g transform="matrix(-0.969045509462034,0.2468821593219464,-0.2468821593219464,-0.969045509462034,1789.376621955848,1430.6450208256665)" style="transform:matrix(-0.969046, 0.246882, -0.246882, -0.969046, 1789.38, 1430.65);;animation:none"><path d="M -1610 468.45 S -1095.12 379.59 -1006 379.59 S -591.893 415.916 -402 415.916 S 111.479 390.981 202 390.981 S 725.411 466.069 806 466.069 S 1172.85 372.623 1410 372.623 S 1775.77 421.607 2014 421.607 S 2450.47 365.541 2618 365.541 S 3135.76 417.851 3222 417.851" fill="none" stroke="rgb(255, 10, 53)" stroke-opacity="0" stroke-width="9.980263157894736" transform="matrix(1,0,0,1,167.291015625,0)" style="fill:none;stroke:rgb(255, 10, 53);transform:matrix(1, 0, 0, 1, 167.291, 0);;animation:none"></path></g>
<g transform="matrix(-0.9696129670156118,0.24464401524497179,-0.24464401524497179,-0.9696129670156118,1787.9813610627816,1432.9162979332166)" style="transform:matrix(-0.969613, 0.244644, -0.244644, -0.969613, 1787.98, 1432.92);;animation:none"><path d="M -1610 608.167 S -1225.94 531.077 -1006 531.077 S -521.5 618.006 -402 618.006 S 115.929 521.72 202 521.72 S 703.107 564.89 806 564.89 S 1201.35 495.738 1410 495.738 S 1866.08 579.756 2014 579.756 S 2504.45 498.015 2618 498.015 S 2996.56 565.078 3222 565.078" fill="none" stroke="rgb(255, 18, 49)" stroke-opacity="0" stroke-width="9.736842105263158" transform="matrix(1,0,0,1,126.17681884765625,0)" style="fill:none;stroke:rgb(255, 18, 49);transform:matrix(1, 0, 0, 1, 126.177, 0);;animation:none"></path></g>
<g transform="matrix(-0.9700005731458096,0.24310262873280686,-0.24310262873280686,-0.9700005731458096,1787.0178866587744,1434.4778581482478)" style="transform:matrix(-0.970001, 0.243103, -0.243103, -0.970001, 1787.02, 1434.48);;animation:none"><path d="M -1610 541.671 S -1177.26 454.899 -1006 454.899 S -490.569 530.942 -402 530.942 S 66.7094 505.671 202 505.671 S 611.136 562.795 806 562.795 S 1195.48 540.628 1410 540.628 S 1890.04 619.547 2014 619.547 S 2489.58 538.756 2618 538.756 S 2984.44 628.667 3222 628.667" fill="none" stroke="rgb(255, 28, 43)" stroke-opacity="0" stroke-width="9.493421052631579" transform="matrix(1,0,0,1,84.46014404296875,0)" style="fill:none;stroke:rgb(255, 28, 43);transform:matrix(1, 0, 0, 1, 84.4601, 0);;animation:none"></path></g>
<g transform="matrix(-0.9702238466160436,0.24221000693110917,-0.24221000693110917,-0.9702238466160436,1786.4589772614079,1435.3811774952333)" style="transform:matrix(-0.970224, 0.24221, -0.24221, -0.970224, 1786.46, 1435.38);;animation:none"><path d="M -1610 614.524 S -1167 544.555 -1006 544.555 S -474.1 620.539 -402 620.539 S 36.0908 536.598 202 536.598 S 712.007 625.603 806 625.603 S 1214.03 581.603 1410 581.603 S 1844.07 600.67 2014 600.67 S 2475.05 535.673 2618 535.673 S 3083.97 596.664 3222 596.664" fill="none" stroke="rgb(255, 40, 36)" stroke-opacity="0" stroke-width="9.25" transform="matrix(1,0,0,1,42.33380126953125,0)" style="fill:none;stroke:rgb(255, 40, 36);transform:matrix(1, 0, 0, 1, 42.3338, 0);;animation:none"></path></g>
<g transform="matrix(-0.9702957262759965,0.24192189559966773,-0.24192189559966773,-0.9702957262759965,1786.2784282609023,1435.6725875356547)" style="transform:matrix(-0.970296, 0.241922, -0.241922, -0.970296, 1786.28, 1435.67);;animation:none"><path d="M -1610 468.402 S -1093 378.402 -1006 378.402 S -593 414.402 -402 414.402 S 112 389.402 202 389.402 S 728 465.402 806 465.402 S 1172 371.402 1410 371.402 S 1773 420.402 2014 420.402 S 2450 364.402 2618 364.402 S 3136 416.402 3222 416.402" fill="none" stroke="rgb(255, 54, 29)" stroke-opacity="0" stroke-width="9.006578947368421" transform="matrix(1,0,0,1,0,0)" style="fill:none;stroke:rgb(255, 54, 29);transform:matrix(1, 0, 0, 1, 0, 0);;animation:none"></path></g>
<g transform="matrix(-0.9702238466160436,0.24221000693110917,-0.24221000693110917,-0.9702238466160436,1786.4589772614079,1435.3811774952333)" style="transform:matrix(-0.970224, 0.24221, -0.24221, -0.970224, 1786.46, 1435.38);;animation:none"><path d="M -1610 608.457 S -1226.89 531.447 -1006 531.447 S -521.947 618.44 -402 618.44 S 115.992 521.515 202 521.515 S 703.011 564.533 806 564.533 S 1201.04 495.517 1410 495.517 S 1866.01 579.519 2014 579.519 S 2504.94 497.546 2618 497.546 S 2996.06 564.553 3222 564.553" fill="none" stroke="rgb(255, 69, 22)" stroke-opacity="0" stroke-width="8.763157894736842" transform="matrix(1,0,0,1,-42.333740234375,0)" style="fill:none;stroke:rgb(255, 69, 22);transform:matrix(1, 0, 0, 1, -42.3337, 0);;animation:none"></path></g>
<g transform="matrix(-0.9700005731458096,0.24310262873280686,-0.24310262873280686,-0.9700005731458096,1787.0178866587744,1434.4778581482478)" style="transform:matrix(-0.970001, 0.243103, -0.243103, -0.970001, 1787.02, 1434.48);;animation:none"><path d="M -1610 541.671 S -1177.26 454.899 -1006 454.899 S -490.569 530.942 -402 530.942 S 66.7094 505.671 202 505.671 S 611.136 562.795 806 562.795 S 1195.48 540.628 1410 540.628 S 1890.04 619.547 2014 619.547 S 2489.58 538.756 2618 538.756 S 2984.44 628.667 3222 628.667" fill="none" stroke="rgb(255, 81, 15)" stroke-opacity="0" stroke-width="8.519736842105264" transform="matrix(1,0,0,1,-84.4599609375,0)" style="fill:none;stroke:rgb(255, 81, 15);transform:matrix(1, 0, 0, 1, -84.46, 0);;animation:none"></path></g>
<g transform="matrix(-0.9696129670156118,0.24464401524497179,-0.24464401524497179,-0.9696129670156118,1787.9813610627816,1432.9162979332166)" style="transform:matrix(-0.969613, 0.244644, -0.244644, -0.969613, 1787.98, 1432.92);;animation:none"><path d="M -1610 614.461 S -1166.96 544.755 -1006 544.755 S -474.947 620.604 -402 620.604 S 36.8576 537.166 202 537.166 S 712.063 626.211 806 626.211 S 1214.26 582.211 1410 582.211 S 1844.65 601.845 2014 601.845 S 2475.46 536.872 2618 536.872 S 3083.68 597.783 3222 597.783" fill="none" stroke="rgb(255, 91, 9)" stroke-opacity="0" stroke-width="8.276315789473685" transform="matrix(1,0,0,1,-126.1766357421875,0)" style="fill:none;stroke:rgb(255, 91, 9);transform:matrix(1, 0, 0, 1, -126.177, 0);;animation:none"></path></g>
<g transform="matrix(-0.969045509462034,0.2468821593219464,-0.2468821593219464,-0.969045509462034,1789.376621955848,1430.6450208256665)" style="transform:matrix(-0.969046, 0.246882, -0.246882, -0.969046, 1789.38, 1430.65);;animation:none"><path d="M -1610 468.45 S -1095.12 379.59 -1006 379.59 S -591.893 415.916 -402 415.916 S 111.479 390.981 202 390.981 S 725.411 466.069 806 466.069 S 1172.85 372.623 1410 372.623 S 1775.77 421.607 2014 421.607 S 2450.47 365.541 2618 365.541 S 3135.76 417.851 3222 417.851" fill="none" stroke="rgb(255, 99, 5)" stroke-opacity="0" stroke-width="8.032894736842104" transform="matrix(1,0,0,1,-167.29095458984375,0)" style="fill:none;stroke:rgb(255, 99, 5);transform:matrix(1, 0, 0, 1, -167.291, 0);;animation:none"></path></g>
<g transform="matrix(-0.9682797322593517,0.24986868570462806,-0.24986868570462806,-0.9682797322593517,1791.2315218893577,1427.6071864523879)" style="transform:matrix(-0.96828, 0.249869, -0.249869, -0.96828, 1791.23, 1427.61);;animation:none"><path d="M -1610 607.543 S -1223.89 530.282 -1006 530.282 S -520.539 617.074 -402 617.074 S 115.791 522.161 202 522.161 S 703.313 565.657 806 565.657 S 1202.02 496.214 1410 496.214 S 1866.23 580.266 2014 580.266 S 2503.38 499.023 2618 499.023 S 2997.64 566.205 3222 566.205" fill="none" stroke="rgb(255, 104, 3)" stroke-opacity="0.024390243902439025" stroke-width="7.7894736842105265" transform="matrix(1,0,0,1,-207.6239013671875,0)" style="fill:none;stroke:rgb(255, 104, 3);transform:matrix(1, 0, 0, 1, -207.624, 0);;animation:none"></path></g>
<g transform="matrix(-0.9672941172022912,0.2536574280911959,-0.2536574280911959,-0.9672941172022912,1793.573286093309,1423.7416523714833)" style="transform:matrix(-0.967294, 0.253657, -0.253657, -0.967294, 1793.57, 1423.74);;animation:none"><path d="M -1610 540.165 S -1179.62 455.44 -1006 455.44 S -495.668 531.864 -402 531.864 S 64.1081 504.165 202 504.165 S 612.35 562.399 806 562.399 S 1199.74 538.741 1410 538.741 S 1890.42 616.931 2014 616.931 S 2485.84 538.014 2618 538.014 S 2988.4 627.127 3222 627.127" fill="none" stroke="rgb(255, 107, 1)" stroke-opacity="0.04878048780487805" stroke-width="7.546052631578948" transform="matrix(1,0,0,1,-247.0137939453125,0)" style="fill:none;stroke:rgb(255, 107, 1);transform:matrix(1, 0, 0, 1, -247.014, 0);;animation:none"></path></g>
<g transform="matrix(-0.9660632694662705,0.25830555431143953,-0.25830555431143953,-0.9660632694662705,1796.428778113064,1418.98138426263)" style="transform:matrix(-0.966063, 0.258306, -0.258306, -0.966063, 1796.43, 1418.98);;animation:none"><path d="M -1610 614.106 S -1166.73 545.884 -1006 545.884 S -479.71 620.968 -402 620.968 S 41.1709 540.361 202 540.361 S 712.377 629.631 806 629.631 S 1215.56 585.631 1410 585.631 S 1847.93 608.455 2014 608.455 S 2477.8 543.616 2618 543.616 S 3082.06 604.078 3222 604.078" fill="none" stroke="rgb(255, 109, 0)" stroke-opacity="0.07317073170731707" stroke-width="7.302631578947368" transform="matrix(1,0,0,1,-285.31787109375,0)" style="fill:none;stroke:rgb(255, 109, 0);transform:matrix(1, 0, 0, 1, -285.318, 0);;animation:none"></path></g>
<g transform="matrix(-0.9645581071362236,0.2638705325681241,-0.2638705325681241,-0.9645581071362236,1799.8221419447827,1413.256054937885)" style="transform:matrix(-0.964558, 0.263871, -0.263871, -0.964558, 1799.82, 1413.26);;animation:none"><path d="M -1610 468.618 S -1102.39 383.673 -1006 383.673 S -588.089 421.117 -402 421.117 S 109.689 396.406 202 396.406 S 716.518 468.362 806 468.362 S 1175.76 376.817 1410 376.817 S 1785.28 425.745 2014 425.745 S 2452.09 369.456 2618 369.456 S 3134.92 422.828 3222 422.828" fill="none" stroke="rgb(255, 109, 0)" stroke-opacity="0.0975609756097561" stroke-width="7.059210526315789" transform="matrix(1,0,0,1,-322.413818359375,0)" style="fill:none;stroke:rgb(255, 109, 0);transform:matrix(1, 0, 0, 1, -322.414, 0);;animation:none"></path></g>
<g transform="matrix(-0.9627454304980583,0.27040938603367376,-0.27040938603367376,-0.9627454304980583,1803.773838493802,1406.4922879800358)" style="transform:matrix(-0.962745, 0.270409, -0.270409, -0.962745, 1803.77, 1406.49);;animation:none"><path d="M -1610 605.085 S -1215.84 527.146 -1006 527.146 S -516.746 613.396 -402 613.396 S 115.25 523.901 202 523.901 S 704.126 568.683 806 568.683 S 1204.66 498.089 1410 498.089 S 1866.84 582.276 2014 582.276 S 2499.18 502.997 2618 502.997 S 3001.91 570.654 3222 570.654" fill="none" stroke="rgb(255, 110, 1)" stroke-opacity="0.12195121951219512" stroke-width="6.815789473684211" transform="matrix(1,0,0,1,-358.200927734375,0)" style="fill:none;stroke:rgb(255, 110, 1);transform:matrix(1, 0, 0, 1, -358.201, 0);;animation:none"></path></g>
<g transform="matrix(-0.960588134013673,0.2779756046708591,-0.2779756046708591,-0.960588134013673,1808.2982607461427,1398.616319136273)" style="transform:matrix(-0.960588, 0.277976, -0.277976, -0.960588, 1808.3, 1398.62);;animation:none"><path d="M -1610 536.68 S -1185.08 456.692 -1006 456.692 S -507.472 534 -402 534 S 58.0858 500.68 202 500.68 S 615.16 561.483 806 561.483 S 1209.62 534.372 1410 534.372 S 1891.31 610.877 2014 610.877 S 2477.16 536.295 2618 536.295 S 2997.55 623.561 3222 623.561" fill="none" stroke="rgb(255, 112, 2)" stroke-opacity="0.14634146341463414" stroke-width="6.572368421052632" transform="matrix(1,0,0,1,-392.59814453125,0)" style="fill:none;stroke:rgb(255, 112, 2);transform:matrix(1, 0, 0, 1, -392.598, 0);;animation:none"></path></g>
<g transform="matrix(-0.9580462950257504,0.28661349686892396,-0.28661349686892396,-0.9580462950257504,1813.3999361547637,1389.5594441543249)" style="transform:matrix(-0.958046, 0.286613, -0.286613, -0.958046, 1813.4, 1389.56);;animation:none"><path d="M -1610 613.367 S -1166.26 548.235 -1006 548.235 S -489.637 621.728 -402 621.728 S 50.1617 547.021 202 547.021 S 713.033 636.759 806 636.759 S 1218.28 592.759 1410 592.759 S 1854.77 622.232 2014 622.232 S 2482.67 557.675 2618 557.675 S 3078.69 617.2 3222 617.2" fill="none" stroke="rgb(255, 116, 5)" stroke-opacity="0.17073170731707318" stroke-width="6.328947368421052" transform="matrix(1,0,0,1,-425.5438232421875,0)" style="fill:none;stroke:rgb(255, 116, 5);transform:matrix(1, 0, 0, 1, -425.544, 0);;animation:none"></path></g>
<g transform="matrix(-0.9550783665220348,0.2963533596934607,-0.2963533596934607,-0.9550783665220348,1819.0704901965769,1379.262893743748)" style="transform:matrix(-0.955078, 0.296353, -0.296353, -0.955078, 1819.07, 1379.26);;animation:none"><path d="M -1610 468.941 S -1116.39 391.536 -1006 391.536 S -580.765 431.134 -402 431.134 S 106.242 406.854 202 406.854 S 699.391 472.778 806 472.778 S 1181.36 384.896 1410 384.896 S 1803.59 433.716 2014 433.716 S 2455.22 376.996 2618 376.996 S 3133.3 432.415 3222 432.415" fill="none" stroke="rgb(255, 122, 9)" stroke-opacity="0.1951219512195122" stroke-width="6.0855263157894735" transform="matrix(1,0,0,1,-456.9945068359375,0)" style="fill:none;stroke:rgb(255, 122, 9);transform:matrix(1, 0, 0, 1, -456.995, 0);;animation:none"></path></g>
<g transform="matrix(-0.9516440277471061,0.3072029369216141,-0.3072029369216141,-0.9516440277471061,1825.283872639056,1367.687068738831)" style="transform:matrix(-0.951644, 0.307203, -0.307203, -0.951644, 1825.28, 1367.69);;animation:none"><path d="M -1610 600.642 S -1201.28 521.481 -1006 521.481 S -509.895 606.752 -402 606.752 S 114.271 527.044 202 527.044 S 705.594 574.151 806 574.151 S 1209.43 501.476 1410 501.476 S 1867.95 585.908 2014 585.908 S 2491.6 510.177 2618 510.177 S 3009.62 578.69 3222 578.69" fill="none" stroke="rgb(255, 130, 15)" stroke-opacity="0.21951219512195122" stroke-width="5.842105263157895" transform="matrix(1,0,0,1,-486.9224853515625,0)" style="fill:none;stroke:rgb(255, 130, 15);transform:matrix(1, 0, 0, 1, -486.922, 0);;animation:none"></path></g>
<g transform="matrix(-0.9477088137520122,0.319136341297499,-0.319136341297499,-0.9477088137520122,1831.9909174940503,1354.8242886353034)" style="transform:matrix(-0.947709, 0.319136, -0.319136, -0.947709, 1831.99, 1354.82);;animation:none"><path d="M -1610 530.721 S -1194.42 458.834 -1006 458.834 S -527.654 537.651 -402 537.651 S 47.7887 494.721 202 494.721 S 619.965 559.918 806 559.918 S 1226.51 526.903 1410 526.903 S 1892.82 600.524 2014 600.524 S 2462.34 533.356 2618 533.356 S 3013.2 617.465 3222 617.465" fill="none" stroke="rgb(255, 139, 22)" stroke-opacity="0.24390243902439024" stroke-width="5.598684210526316" transform="matrix(1,0,0,1,-515.31494140625,0)" style="fill:none;stroke:rgb(255, 139, 22);transform:matrix(1, 0, 0, 1, -515.315, 0);;animation:none"></path></g>
<g transform="matrix(-0.9432494935901545,0.3320849181187202,-0.3320849181187202,-0.9432494935901545,1839.1161120833153,1340.7105968602832)" style="transform:matrix(-0.943249, 0.332085, -0.332085, -0.943249, 1839.12, 1340.71);;animation:none"><path d="M -1610 612.166 S -1165.5 552.058 -1006 552.058 S -505.773 622.962 -402 622.962 S 64.7753 557.846 202 557.846 S 714.098 648.345 806 648.345 S 1222.69 604.345 1410 604.345 S 1865.88 644.626 2014 644.626 S 2490.59 580.526 2618 580.526 S 3073.21 638.528 3222 638.528" fill="none" stroke="rgb(255, 151, 30)" stroke-opacity="0.2682926829268293" stroke-width="5.355263157894737" transform="matrix(1,0,0,1,-542.1697998046875,0)" style="fill:none;stroke:rgb(255, 151, 30);transform:matrix(1, 0, 0, 1, -542.17, 0);;animation:none"></path></g>
<g transform="matrix(-0.938261647259131,0.3459264102126087,-0.3459264102126087,-0.938261647259131,1846.5547304945342,1325.440752885781)" style="transform:matrix(-0.938262, 0.345926, -0.345926, -0.938262, 1846.55, 1325.44);;animation:none"><path d="M -1610 469.44 S -1138.05 403.7 -1006 403.7 S -569.433 446.632 -402 446.632 S 100.91 423.018 202 423.018 S 672.895 479.61 806 479.61 S 1190.02 397.393 1410 397.393 S 1831.92 446.047 2014 446.047 S 2460.05 388.661 2618 388.661 S 3130.8 447.246 3222 447.246" fill="none" stroke="rgb(255, 162, 38)" stroke-opacity="0.2926829268292683" stroke-width="5.1118421052631575" transform="matrix(1,0,0,1,-567.49658203125,0)" style="fill:none;stroke:rgb(255, 162, 38);transform:matrix(1, 0, 0, 1, -567.497, 0);;animation:none"></path></g>
<g transform="matrix(-0.9327669943890358,0.36047986653687686,-0.36047986653687686,-0.9327669943890358,1854.1745200424393,1309.1783952947412)" style="transform:matrix(-0.932767, 0.36048, -0.36048, -0.932767, 1854.17, 1309.18);;animation:none"><path d="M -1610 594.109 S -1179.86 513.148 -1006 513.148 S -499.819 596.979 -402 596.979 S 112.831 531.666 202 531.666 S 707.753 582.192 806 582.192 S 1216.45 506.458 1410 506.458 S 1869.56 591.251 2014 591.251 S 2480.44 520.737 2618 520.737 S 3020.95 590.51 3222 590.51" fill="none" stroke="rgb(255, 173, 46)" stroke-opacity="0.3170731707317073" stroke-width="4.868421052631579" transform="matrix(1,0,0,1,-591.312255859375,0)" style="fill:none;stroke:rgb(255, 173, 46);transform:matrix(1, 0, 0, 1, -591.312, 0);;animation:none"></path></g>
<g transform="matrix(-0.926819078811981,0.37550818253416385,-0.37550818253416385,-0.926819078811981,1861.8223794906653,1292.1587007769124)" style="transform:matrix(-0.926819, 0.375508, -0.375508, -0.926819, 1861.82, 1292.16);;animation:none"><path d="M -1610 522.414 S -1207.43 461.819 -1006 461.819 S -555.788 542.741 -402 542.741 S 33.4345 486.414 202 486.414 S 626.664 557.735 806 557.735 S 1250.05 516.491 1410 516.491 S 1894.92 586.092 2014 586.092 S 2441.67 529.26 2618 529.26 S 3035.02 608.966 3222 608.966" fill="none" stroke="rgb(255, 181, 52)" stroke-opacity="0.34146341463414637" stroke-width="4.625" transform="matrix(1,0,0,1,-613.6412353515625,0)" style="fill:none;stroke:rgb(255, 181, 52);transform:matrix(1, 0, 0, 1, -613.641, 0);;animation:none"></path></g>
<g transform="matrix(-0.9205048534524404,0.39073112848927377,-0.39073112848927377,-0.9205048534524404,1869.3364158540885,1274.679207798029)" style="transform:matrix(-0.920505, 0.390731, -0.390731, -0.920505, 1869.34, 1274.68);;animation:none"><path d="M -1610 610.586 S -1164.5 557.086 -1006 557.086 S -527 624.586 -402 624.586 S 84 572.086 202 572.086 S 715.5 663.586 806 663.586 S 1228.5 619.586 1410 619.586 S 1880.5 674.086 2014 674.086 S 2501 610.586 2618 610.586 S 3066 666.586 3222 666.586" fill="none" stroke="rgb(255, 188, 56)" stroke-opacity="0.36585365853658536" stroke-width="4.381578947368421" transform="matrix(1,0,0,1,-634.5130615234375,0)" style="fill:none;stroke:rgb(255, 188, 56);transform:matrix(1, 0, 0, 1, -634.513, 0);;animation:none"></path></g>
<g transform="matrix(-0.9139406120474949,0.4058479489294611,-0.4058479489294611,-0.9139406120474949,1876.5613704373623,1257.0782575810858)" style="transform:matrix(-0.913941, 0.405848, -0.405848, -0.913941, 1876.56, 1257.08);;animation:none"><path d="M -1610 470.057 S -1164.82 418.729 -1006 418.729 S -555.433 465.778 -402 465.778 S 94.3213 442.988 202 442.988 S 640.159 488.05 806 488.05 S 1200.73 412.834 1410 412.834 S 1866.92 461.282 2014 461.282 S 2466.02 403.072 2618 403.072 S 3127.71 465.568 3222 465.568" fill="none" stroke="rgb(255, 192, 60)" stroke-opacity="0.3902439024390244" stroke-width="4.1381578947368425" transform="matrix(1,0,0,1,-653.9613037109375,0)" style="fill:none;stroke:rgb(255, 192, 60);transform:matrix(1, 0, 0, 1, -653.961, 0);;animation:none"></path></g>
<g transform="matrix(-0.9072619155609648,0.42056606683450903,-0.42056606683450903,-0.9072619155609648,1883.364262332133,1239.7035513249186)" style="transform:matrix(-0.907262, 0.420566, -0.420566, -0.907262, 1883.36, 1239.7);;animation:none"><path d="M -1610 586.563 S -1155.14 503.524 -1006 503.524 S -488.181 585.692 -402 585.692 S 111.169 537.005 202 537.005 S 710.247 591.479 806 591.479 S 1224.55 512.213 1410 512.213 S 1871.44 597.421 2014 597.421 S 2467.56 532.934 2618 532.934 S 3034.05 604.161 3222 604.161" fill="none" stroke="rgb(255, 195, 62)" stroke-opacity="0.4146341463414634" stroke-width="3.8947368421052633" transform="matrix(1,0,0,1,-672.0225830078125,0)" style="fill:none;stroke:rgb(255, 195, 62);transform:matrix(1, 0, 0, 1, -672.023, 0);;animation:none"></path></g>
<g transform="matrix(-0.9006099418034067,0.43462826958777584,-0.43462826958777584,-0.9006099418034067,1889.6458962356269,1222.8789698241594)" style="transform:matrix(-0.90061, 0.434628, -0.434628, -0.90061, 1889.65, 1222.88);;animation:none"><path d="M -1610 513.477 S -1221.43 465.029 -1006 465.029 S -586.053 548.217 -402 548.217 S 17.9932 477.477 202 477.477 S 633.87 555.387 806 555.387 S 1275.37 505.29 1410 505.29 S 1897.19 570.568 2014 570.568 S 2419.43 524.853 2618 524.853 S 3058.49 599.824 3222 599.824" fill="none" stroke="rgb(255, 197, 63)" stroke-opacity="0.43902439024390244" stroke-width="3.651315789473684" transform="matrix(1,0,0,1,-688.7359619140625,0)" style="fill:none;stroke:rgb(255, 197, 63);transform:matrix(1, 0, 0, 1, -688.736, 0);;animation:none"></path></g>
<g transform="matrix(-0.8941180548486086,0.4478313343143159,-0.4478313343143159,-0.8941180548486086,1895.3454632982264,1206.8784662641992)" style="transform:matrix(-0.894118, 0.447831, -0.447831, -0.894118, 1895.35, 1206.88);;animation:none"><path d="M -1610 609.006 S -1163.5 562.115 -1006 562.115 S -548.227 626.21 -402 626.21 S 103.225 586.327 202 586.327 S 716.902 678.828 806 678.828 S 1234.31 634.828 1410 634.828 S 1895.12 703.546 2014 703.546 S 2511.41 640.647 2618 640.647 S 3058.79 694.644 3222 694.644" fill="none" stroke="rgb(255, 197, 63)" stroke-opacity="0.4634146341463415" stroke-width="3.4078947368421053" transform="matrix(1,0,0,1,-704.1414794921875,0)" style="fill:none;stroke:rgb(255, 197, 63);transform:matrix(1, 0, 0, 1, -704.141, 0);;animation:none"></path></g>
<g transform="matrix(-0.8879013322603525,0.4600339380635857,-0.4600339380635857,-0.8879013322603525,1900.4386562172008,1191.911032304255)" style="transform:matrix(-0.887901, 0.460034, -0.460034, -0.887901, 1900.44, 1191.91);;animation:none"><path d="M -1610 470.63 S -1189.7 432.7 -1006 432.7 S -542.418 483.577 -402 483.577 S 88.1968 461.552 202 461.552 S 609.728 495.897 806 495.897 S 1210.68 427.188 1410 427.188 S 1899.45 475.444 2014 475.444 S 2471.57 416.468 2618 416.468 S 3124.84 482.601 3222 482.601" fill="none" stroke="rgb(253, 196, 64)" stroke-opacity="0.4878048780487805" stroke-width="3.164473684210526" transform="matrix(1,0,0,1,-718.280029296875,0)" style="fill:none;stroke:rgb(253, 196, 64);transform:matrix(1, 0, 0, 1, -718.28, 0);;animation:none"></path></g>
<g transform="matrix(-0.8820507888804824,0.47115433335088686,-0.47115433335088686,-0.8820507888804824,1904.931095896647,1178.1177894511352)" style="transform:matrix(-0.882051, 0.471154, -0.471154, -0.882051, 1904.93, 1178.12);;animation:none"><path d="M -1610 580.029 S -1133.72 495.191 -1006 495.191 S -478.105 575.92 -402 575.92 S 109.729 541.628 202 541.628 S 712.406 599.521 806 599.521 S 1231.57 517.195 1410 517.195 S 1873.05 602.763 2014 602.763 S 2456.4 543.495 2618 543.495 S 3045.38 615.982 3222 615.982" fill="none" stroke="rgb(249, 194, 66)" stroke-opacity="0.5121951219512195" stroke-width="2.9210526315789473" transform="matrix(1,0,0,1,-731.19287109375,0)" style="fill:none;stroke:rgb(249, 194, 66);transform:matrix(1, 0, 0, 1, -731.193, 0);;animation:none"></path></g>
<g transform="matrix(-0.8766319483404201,0.4811615395570171,-0.4811615395570171,-0.8766319483404201,1908.8498923974698,1165.5778979082988)" style="transform:matrix(-0.876632, 0.481162, -0.481162, -0.876632, 1908.85, 1165.58);;animation:none"><path d="M -1610 506.244 S -1232.76 467.628 -1006 467.628 S -610.551 552.649 -402 552.649 S 5.49466 470.244 202 470.244 S 639.703 553.486 806 553.486 S 1295.87 496.223 1410 496.223 S 1899.02 558.002 2014 558.002 S 2401.43 521.286 2618 521.286 S 3077.49 592.424 3222 592.424" fill="none" stroke="rgb(242, 189, 71)" stroke-opacity="0.5365853658536586" stroke-width="2.6776315789473686" transform="matrix(1,0,0,1,-742.9210205078125,0)" style="fill:none;stroke:rgb(242, 189, 71);transform:matrix(1, 0, 0, 1, -742.921, 0);;animation:none"></path></g>
<g transform="matrix(-0.8716873737389219,0.4900623658924862,-0.4900623658924862,-0.8716873737389219,1912.2349436358645,1154.3210972255065)" style="transform:matrix(-0.871687, 0.490062, -0.490062, -0.871687, 1912.23, 1154.32);;animation:none"><path d="M -1610 607.805 S -1162.74 565.937 -1006 565.937 S -564.363 627.445 -402 627.445 S 117.838 597.151 202 597.151 S 717.967 690.414 806 690.414 S 1238.72 646.414 1410 646.414 S 1906.23 725.94 2014 725.94 S 2519.33 663.497 2618 663.497 S 3053.31 715.973 3222 715.973" fill="none" stroke="rgb(230, 183, 77)" stroke-opacity="0.5609756097560976" stroke-width="2.4342105263157894" transform="matrix(1,0,0,1,-753.5048828125,0)" style="fill:none;stroke:rgb(230, 183, 77);transform:matrix(1, 0, 0, 1, -753.505, 0);;animation:none"></path></g>
<g transform="matrix(-0.8672395038191386,0.49789119596105963,-0.49789119596105963,-0.8672395038191386,1915.1327652321834,1144.3382766616842)" style="transform:matrix(-0.86724, 0.497891, -0.497891, -0.86724, 1915.13, 1144.34);;animation:none"><path d="M -1610 471.042 S -1207.55 442.722 -1006 442.722 S -533.082 496.345 -402 496.345 S 83.8034 474.869 202 474.869 S 587.898 501.525 806 501.525 S 1217.82 437.484 1410 437.484 S 1922.79 485.603 2014 485.603 S 2475.55 426.078 2618 426.078 S 3122.78 494.82 3222 494.82" fill="none" stroke="rgb(215, 173, 87)" stroke-opacity="0.5853658536585366" stroke-width="2.1907894736842106" transform="matrix(1,0,0,1,-762.9842529296875,0)" style="fill:none;stroke:rgb(215, 173, 87);transform:matrix(1, 0, 0, 1, -762.984, 0);;animation:none"></path></g>
<g transform="matrix(-0.8632954056757871,0.5046989622924523,-0.5046989622924523,-0.8632954056757871,1917.591192866013,1135.5942835512897)" style="transform:matrix(-0.863295, 0.504699, -0.504699, -0.863295, 1917.59, 1135.59);;animation:none"><path d="M -1610 575.587 S -1119.16 489.525 -1006 489.525 S -471.254 569.275 -402 569.275 S 108.75 544.77 202 544.77 S 713.874 604.988 806 604.988 S 1236.34 520.583 1410 520.583 S 1874.16 606.395 2014 606.395 S 2448.82 550.675 2618 550.675 S 3053.09 624.018 3222 624.018" fill="none" stroke="rgb(195, 162, 98)" stroke-opacity="0.6097560975609756" stroke-width="1.9473684210526316" transform="matrix(1,0,0,1,-771.39794921875,0)" style="fill:none;stroke:rgb(195, 162, 98);transform:matrix(1, 0, 0, 1, -771.398, 0);;animation:none"></path></g>
<g transform="matrix(-0.8598509391290718,0.5105451620364775,-0.5105451620364775,-0.8598509391290718,1919.656127584088,1128.0377966899425)" style="transform:matrix(-0.859851, 0.510545, -0.510545, -0.859851, 1919.66, 1128.04);;animation:none"><path d="M -1610 501.569 S -1240.09 469.308 -1006 469.308 S -626.385 555.514 -402 555.514 S -2.58398 465.569 202 465.569 S 643.473 552.258 806 552.258 S 1309.12 490.363 1410 490.363 S 1900.21 549.88 2014 549.88 S 2389.8 518.98 2618 518.98 S 3089.77 587.641 3222 587.641" fill="none" stroke="rgb(172, 148, 112)" stroke-opacity="0.6341463414634146" stroke-width="1.7039473684210527" transform="matrix(1,0,0,1,-778.783935546875,0)" style="fill:none;stroke:rgb(172, 148, 112);transform:matrix(1, 0, 0, 1, -778.784, 0);;animation:none"></path></g>
<g transform="matrix(-0.8568934023924861,0.515493643933879,-0.515493643933879,-0.8568934023924861,1921.3701792812362,1121.6069071130096)" style="transform:matrix(-0.856893, 0.515494, -0.515494, -0.856893, 1921.37, 1121.61);;animation:none"><path d="M -1610 607.066 S -1162.27 568.289 -1006 568.289 S -574.291 628.205 -402 628.205 S 126.829 603.811 202 603.811 S 718.623 697.542 806 697.542 S 1241.44 653.542 1410 653.542 S 1913.07 739.718 2014 739.718 S 2524.2 677.556 2618 677.556 S 3049.94 729.095 3222 729.095" fill="none" stroke="rgb(148, 134, 126)" stroke-opacity="0.6585365853658537" stroke-width="1.4605263157894737" transform="matrix(1,0,0,1,-785.1785888671875,0)" style="fill:none;stroke:rgb(148, 134, 126);transform:matrix(1, 0, 0, 1, -785.179, 0);;animation:none"></path></g>
<g transform="matrix(-0.8544048388878545,0.5196079014843975,-0.5196079014843975,-0.8544048388878545,1922.7714337830619,1116.2356434847595)" style="transform:matrix(-0.854405, 0.519608, -0.519608, -0.854405, 1922.77, 1116.24);;animation:none"><path d="M -1610 471.282 S -1217.99 448.583 -1006 448.583 S -527.622 503.812 -402 503.812 S 81.2339 482.658 202 482.658 S 575.131 504.817 806 504.817 S 1221.99 443.506 1410 443.506 S 1936.45 491.545 2014 491.545 S 2477.88 431.699 2618 431.699 S 3121.58 501.966 3222 501.966" fill="none" stroke="rgb(125, 121, 139)" stroke-opacity="0.6829268292682927" stroke-width="1.2171052631578947" transform="matrix(1,0,0,1,-790.617431640625,0)" style="fill:none;stroke:rgb(125, 121, 139);transform:matrix(1, 0, 0, 1, -790.617, 0);;animation:none"></path></g>
<g transform="matrix(-0.8523641114454037,0.5229487752350964,-0.5229487752350964,-0.8523641114454037,1923.8932212205923,1111.857538156819)" style="transform:matrix(-0.852364, 0.522949, -0.522949, -0.852364, 1923.89, 1111.86);;animation:none"><path d="M -1610 573.128 S -1111.11 486.389 -1006 486.389 S -467.461 565.598 -402 565.598 S 108.209 546.51 202 546.51 S 714.687 608.014 806 608.014 S 1238.98 522.458 1410 522.458 S 1874.77 608.406 2014 608.406 S 2444.62 554.649 2618 554.649 S 3057.36 628.466 3222 628.466" fill="none" stroke="rgb(107, 110, 150)" stroke-opacity="0.7073170731707317" stroke-width="0.9736842105263158" transform="matrix(1,0,0,1,-795.134521484375,0)" style="fill:none;stroke:rgb(107, 110, 150);transform:matrix(1, 0, 0, 1, -795.135, 0);;animation:none"></path></g>
<g transform="matrix(-0.8507477376973294,0.5255742448055042,-0.5255742448055042,-0.8507477376973294,1924.764616422905,1108.4064858761092)" style="transform:matrix(-0.850748, 0.525574, -0.525574, -0.850748, 1924.76, 1108.41);;animation:none"><path d="M -1610 499.141 S -1243.89 470.181 -1006 470.181 S -634.606 557.001 -402 557.001 S -6.77875 463.141 202 463.141 S 645.43 551.62 806 551.62 S 1316 487.32 1410 487.32 S 1900.82 545.662 2014 545.662 S 2383.76 517.783 2618 517.783 S 3096.14 585.158 3222 585.158" fill="none" stroke="rgb(92, 101, 159)" stroke-opacity="0.7317073170731707" stroke-width="0.7302631578947368" transform="matrix(1,0,0,1,-798.7628173828125,0)" style="fill:none;stroke:rgb(92, 101, 159);transform:matrix(1, 0, 0, 1, -798.763, 0);;animation:none"></path></g>
<g transform="matrix(-0.8495319407233421,0.5275371851261595,-0.5275371851261595,-0.8495319407233421,1925.4102329741875,1105.8202469220073)" style="transform:matrix(-0.849532, 0.527537, -0.527537, -0.849532, 1925.41, 1105.82);;animation:none"><path d="M -1610 606.712 S -1162.04 569.417 -1006 569.417 S -579.053 628.569 -402 628.569 S 131.142 607.006 202 607.006 S 718.937 700.962 806 700.962 S 1242.74 656.962 1410 656.962 S 1916.35 746.327 2014 746.327 S 2526.54 684.301 2618 684.301 S 3048.32 735.39 3222 735.39" fill="none" stroke="rgb(82, 95, 165)" stroke-opacity="0.7560975609756098" stroke-width="0.4868421052631579" transform="matrix(1,0,0,1,-801.5338134765625,0)" style="fill:none;stroke:rgb(82, 95, 165);transform:matrix(1, 0, 0, 1, -801.534, 0);;animation:none"></path></g>
<g transform="matrix(-0.8486924139002198,0.528886742685254,-0.528886742685254,-0.8486924139002198,1925.8511727617247,1104.0391446408025)" style="transform:matrix(-0.848692, 0.528887, -0.528887, -0.848692, 1925.85, 1104.04);;animation:none"><path d="M -1610 471.386 S -1222.5 451.115 -1006 451.115 S -525.263 507.038 -402 507.038 S 80.124 486.022 202 486.022 S 569.616 506.239 806 506.239 S 1223.8 446.107 1410 446.107 S 1942.34 494.111 2014 494.111 S 2478.89 434.127 2618 434.127 S 3121.06 505.053 3222 505.053" fill="none" stroke="rgb(75, 91, 169)" stroke-opacity="0.7804878048780488" stroke-width="0.24342105263157895" transform="matrix(1,0,0,1,-803.477783203125,0)" style="fill:none;stroke:rgb(75, 91, 169);transform:matrix(1, 0, 0, 1, -803.478, 0);;animation:none"></path></g>
<g transform="matrix(-0.8482054142966083,0.5296674193849561,-0.5296674193849561,-0.8482054142966083,1926.1051480498209,1103.0077077255537)" style="transform:matrix(-0.848205, 0.529667, -0.529667, -0.848205, 1926.11, 1103.01);;animation:none"><path d="M -1610 572.215 S -1108.11 485.224 -1006 485.224 S -466.053 564.232 -402 564.232 S 108.008 547.156 202 547.156 S 714.989 609.138 806 609.138 S 1239.96 523.154 1410 523.154 S 1874.99 609.152 2014 609.152 S 2443.06 556.125 2618 556.125 S 3058.94 630.118 3222 630.118" fill="none" stroke="rgb(71, 89, 171)" stroke-opacity="0.8048780487804879" stroke-width="0" transform="matrix(1,0,0,1,-804.6239013671875,0)" style="fill:none;stroke:rgb(71, 89, 171);transform:matrix(1, 0, 0, 1, -804.624, 0);;animation:none"></path></g>
<g></g></g><!-- [ldio] generated by https://loading.io --></svg>